<svg width="12" height="12" viewBox="0 0 12 12" fill="none" xmlns="http://www.w3.org/2000/svg">
<path d="M2.625 1.5C2.12772 1.5 1.65081 1.69754 1.29917 2.04917C0.947544 2.40081 0.75 2.87772 0.75 3.375V7.125C0.75 7.37123 0.798498 7.61505 0.892726 7.84253C0.986953 8.07002 1.12506 8.27672 1.29917 8.45083C1.65081 8.80246 2.12772 9 2.625 9H5.25V8.25H2.625C2.32663 8.25 2.04048 8.13147 1.8295 7.9205C1.61853 7.70952 1.5 7.42337 1.5 7.125V3.375C1.5 3.07663 1.61853 2.79048 1.8295 2.5795C2.04048 2.36853 2.32663 2.25 2.625 2.25H8.625C8.92337 2.25 9.20952 2.36853 9.4205 2.5795C9.63147 2.79048 9.75 3.07663 9.75 3.375V6H10.5V3.375C10.5 2.87772 10.3025 2.40081 9.95082 2.04917C9.59919 1.69754 9.12228 1.5 8.625 1.5H2.625ZM3.2655 3.4845C3.19509 3.41408 3.09958 3.37453 3 3.37453C2.90042 3.37453 2.80491 3.41408 2.7345 3.4845C2.66408 3.55491 2.62453 3.65042 2.62453 3.75C2.62453 3.79931 2.63424 3.84813 2.65311 3.89369C2.67198 3.93924 2.69963 3.98063 2.7345 4.0155L3.96975 5.25H3.375C3.27554 5.25 3.18016 5.28951 3.10984 5.35984C3.03951 5.43016 3 5.52554 3 5.625C3 5.72446 3.03951 5.81984 3.10984 5.89016C3.18016 5.96049 3.27554 6 3.375 6H4.875C4.97356 6.00014 5.06819 5.96132 5.13825 5.892L5.142 5.88825C5.21132 5.81819 5.25014 5.72356 5.25 5.625V4.125C5.25 4.02554 5.21049 3.93016 5.14016 3.85984C5.06984 3.78951 4.97446 3.75 4.875 3.75C4.77554 3.75 4.68016 3.78951 4.60984 3.85984C4.53951 3.93016 4.5 4.02554 4.5 4.125V4.71975L3.2655 3.4845ZM6.75 6.75C6.55109 6.75 6.36032 6.82902 6.21967 6.96967C6.07902 7.11032 6 7.30109 6 7.5V9.75C6 9.94891 6.07902 10.1397 6.21967 10.2803C6.36032 10.421 6.55109 10.5 6.75 10.5H10.5C10.6989 10.5 10.8897 10.421 11.0303 10.2803C11.171 10.1397 11.25 9.94891 11.25 9.75V7.5C11.25 7.30109 11.171 7.11032 11.0303 6.96967C10.8897 6.82902 10.6989 6.75 10.5 6.75H6.75Z" fill="white"/>
</svg>
