<svg width="20" height="20" viewBox="0 0 20 20" fill="none" xmlns="http://www.w3.org/2000/svg">
<path d="M18.25 11.75C18.0899 11.5899 17.8728 11.5 17.6464 11.5H11.3536C11.1272 11.5 10.9101 11.5899 10.75 11.75V11.75C10.5899 11.9101 10.5 12.1272 10.5 12.3536V16.6464C10.5 16.8728 10.5899 17.0899 10.75 17.25V17.25C10.9101 17.4101 11.1272 17.5 11.3536 17.5H17.6464C17.8728 17.5 18.0899 17.4101 18.25 17.25V17.25C18.4101 17.0899 18.5 16.8728 18.5 16.6464V12.3536C18.5 12.1272 18.4101 11.9101 18.25 11.75V11.75Z" fill="black"/>
<path d="M8.14645 9.85355C8.34171 10.0488 8.65829 10.0488 8.85355 9.85355C9.04882 9.65829 9.04882 9.34171 8.85355 9.14645L8.14645 9.85355ZM5 6V5.5C4.72386 5.5 4.5 5.72386 4.5 6H5ZM4.5 9C4.5 9.27614 4.72386 9.5 5 9.5C5.27614 9.5 5.5 9.27614 5.5 9H4.5ZM8 6.5C8.27614 6.5 8.5 6.27614 8.5 6C8.5 5.72386 8.27614 5.5 8 5.5V6.5ZM18 10V5.46353H17V10H18ZM15.5365 3H4.46353V4H15.5365V3ZM2 5.46353V12.5365H3V5.46353H2ZM4.46353 15H9V14H4.46353V15ZM17.6464 11H11.3536V12H17.6464V11ZM10 12.3536V16.6464H11V12.3536H10ZM11.3536 18H17.6464V17H11.3536V18ZM19 16.6464V12.3536H18V16.6464H19ZM8.85355 9.14645L5.35355 5.64645L4.64645 6.35355L8.14645 9.85355L8.85355 9.14645ZM4.5 6V9H5.5V6H4.5ZM5 6C5 6.5 5.00001 6.5 5.00002 6.5C5.00003 6.5 5.00006 6.5 5.00008 6.5C5.00011 6.5 5.00015 6.5 5.00019 6.5C5.00023 6.5 5.00028 6.5 5.00033 6.5C5.00039 6.5 5.00045 6.5 5.00052 6.5C5.00059 6.5 5.00067 6.5 5.00075 6.5C5.00083 6.5 5.00092 6.5 5.00102 6.5C5.00112 6.5 5.00122 6.5 5.00133 6.5C5.00144 6.5 5.00156 6.5 5.00168 6.5C5.00181 6.5 5.00194 6.5 5.00207 6.5C5.00221 6.5 5.00236 6.5 5.00251 6.5C5.00266 6.5 5.00282 6.5 5.00298 6.5C5.00315 6.5 5.00332 6.5 5.0035 6.5C5.00367 6.5 5.00386 6.5 5.00405 6.5C5.00424 6.5 5.00444 6.5 5.00465 6.5C5.00485 6.5 5.00506 6.5 5.00528 6.5C5.0055 6.5 5.00572 6.5 5.00596 6.5C5.00619 6.5 5.00643 6.5 5.00667 6.5C5.00692 6.5 5.00717 6.5 5.00743 6.5C5.00769 6.5 5.00795 6.5 5.00822 6.5C5.00849 6.5 5.00877 6.5 5.00906 6.5C5.00934 6.5 5.00963 6.5 5.00993 6.5C5.01023 6.5 5.01053 6.5 5.01084 6.5C5.01115 6.5 5.01147 6.5 5.0118 6.5C5.01212 6.5 5.01245 6.5 5.01279 6.5C5.01313 6.5 5.01347 6.5 5.01382 6.5C5.01417 6.5 5.01453 6.5 5.01489 6.5C5.01525 6.5 5.01562 6.5 5.016 6.5C5.01637 6.5 5.01676 6.5 5.01715 6.5C5.01754 6.5 5.01793 6.5 5.01833 6.5C5.01873 6.5 5.01914 6.5 5.01956 6.5C5.01997 6.5 5.02039 6.5 5.02082 6.5C5.02125 6.5 5.02168 6.5 5.02212 6.5C5.02256 6.5 5.02301 6.5 5.02346 6.5C5.02391 6.5 5.02437 6.5 5.02484 6.5C5.0253 6.5 5.02578 6.5 5.02625 6.5C5.02673 6.5 5.02722 6.5 5.02771 6.5C5.0282 6.5 5.0287 6.5 5.0292 6.5C5.0297 6.5 5.03021 6.5 5.03073 6.5C5.03124 6.5 5.03177 6.5 5.03229 6.5C5.03282 6.5 5.03336 6.5 5.0339 6.5C5.03444 6.5 5.03499 6.5 5.03554 6.5C5.03609 6.5 5.03665 6.5 5.03722 6.5C5.03778 6.5 5.03835 6.5 5.03893 6.5C5.03951 6.5 5.04009 6.5 5.04069 6.5C5.04128 6.5 5.04187 6.5 5.04247 6.5C5.04308 6.5 5.04369 6.5 5.0443 6.5C5.04491 6.5 5.04554 6.5 5.04616 6.5C5.04679 6.5 5.04742 6.5 5.04806 6.5C5.0487 6.5 5.04935 6.5 5.05 6.5C5.05065 6.5 5.05131 6.5 5.05197 6.5C5.05263 6.5 5.0533 6.5 5.05398 6.5C5.05465 6.5 5.05533 6.5 5.05602 6.5C5.05671 6.5 5.0574 6.5 5.0581 6.5C5.0588 6.5 5.05951 6.5 5.06022 6.5C5.06093 6.5 5.06164 6.5 5.06237 6.5C5.06309 6.5 5.06382 6.5 5.06456 6.5C5.06529 6.5 5.06603 6.5 5.06678 6.5C5.06752 6.5 5.06828 6.5 5.06904 6.5C5.06979 6.5 5.07056 6.5 5.07133 6.5C5.0721 6.5 5.07288 6.5 5.07366 6.5C5.07444 6.5 5.07523 6.5 5.07602 6.5C5.07682 6.5 5.07761 6.5 5.07842 6.5C5.07923 6.5 5.08004 6.5 5.08085 6.5C5.08167 6.5 5.08249 6.5 5.08332 6.5C5.08415 6.5 5.08498 6.5 5.08582 6.5C5.08666 6.5 5.08751 6.5 5.08836 6.5C5.08921 6.5 5.09007 6.5 5.09093 6.5C5.0918 6.5 5.09267 6.5 5.09354 6.5C5.09441 6.5 5.09529 6.5 5.09618 6.5C5.09707 6.5 5.09796 6.5 5.09885 6.5C5.09975 6.5 5.10065 6.5 5.10156 6.5C5.10247 6.5 5.10338 6.5 5.1043 6.5C5.10522 6.5 5.10615 6.5 5.10708 6.5C5.10801 6.5 5.10895 6.5 5.10989 6.5C5.11083 6.5 5.11178 6.5 5.11273 6.5C5.11369 6.5 5.11464 6.5 5.11561 6.5C5.11657 6.5 5.11754 6.5 5.11852 6.5C5.11949 6.5 5.12048 6.5 5.12146 6.5C5.12245 6.5 5.12344 6.5 5.12444 6.5C5.12543 6.5 5.12644 6.5 5.12745 6.5C5.12845 6.5 5.12947 6.5 5.13049 6.5C5.13151 6.5 5.13253 6.5 5.13356 6.5C5.13459 6.5 5.13563 6.5 5.13667 6.5C5.13771 6.5 5.13876 6.5 5.13981 6.5C5.14086 6.5 5.14192 6.5 5.14298 6.5C5.14404 6.5 5.14511 6.5 5.14619 6.5C5.14726 6.5 5.14834 6.5 5.14942 6.5C5.15051 6.5 5.1516 6.5 5.15269 6.5C5.15379 6.5 5.15489 6.5 5.15599 6.5C5.1571 6.5 5.15821 6.5 5.15932 6.5C5.16044 6.5 5.16156 6.5 5.16269 6.5C5.16381 6.5 5.16495 6.5 5.16608 6.5C5.16722 6.5 5.16836 6.5 5.16951 6.5C5.17066 6.5 5.17181 6.5 5.17297 6.5C5.17413 6.5 5.17529 6.5 5.17646 6.5C5.17763 6.5 5.1788 6.5 5.17998 6.5C5.18116 6.5 5.18234 6.5 5.18353 6.5C5.18472 6.5 5.18592 6.5 5.18712 6.5C5.18832 6.5 5.18952 6.5 5.19073 6.5C5.19194 6.5 5.19315 6.5 5.19437 6.5C5.19559 6.5 5.19682 6.5 5.19805 6.5C5.19928 6.5 5.20052 6.5 5.20176 6.5C5.203 6.5 5.20424 6.5 5.20549 6.5C5.20674 6.5 5.208 6.5 5.20926 6.5C5.21052 6.5 5.21179 6.5 5.21306 6.5C5.21433 6.5 5.2156 6.5 5.21688 6.5C5.21816 6.5 5.21945 6.5 5.22074 6.5C5.22203 6.5 5.22333 6.5 5.22463 6.5C5.22593 6.5 5.22723 6.5 5.22854 6.5C5.22985 6.5 5.23117 6.5 5.23249 6.5C5.23381 6.5 5.23513 6.5 5.23646 6.5C5.23779 6.5 5.23913 6.5 5.24047 6.5C5.24181 6.5 5.24315 6.5 5.2445 6.5C5.24585 6.5 5.24721 6.5 5.24857 6.5C5.24993 6.5 5.25129 6.5 5.25266 6.5C5.25403 6.5 5.2554 6.5 5.25678 6.5C5.25816 6.5 5.25954 6.5 5.26093 6.5C5.26232 6.5 5.26371 6.5 5.26511 6.5C5.26651 6.5 5.26791 6.5 5.26932 6.5C5.27073 6.5 5.27214 6.5 5.27355 6.5C5.27497 6.5 5.27639 6.5 5.27782 6.5C5.27925 6.5 5.28068 6.5 5.28211 6.5C5.28355 6.5 5.28499 6.5 5.28643 6.5C5.28788 6.5 5.28933 6.5 5.29078 6.5C5.29224 6.5 5.2937 6.5 5.29516 6.5C5.29662 6.5 5.29809 6.5 5.29956 6.5C5.30104 6.5 5.30252 6.5 5.304 6.5C5.30548 6.5 5.30697 6.5 5.30846 6.5C5.30995 6.5 5.31145 6.5 5.31295 6.5C5.31445 6.5 5.31595 6.5 5.31746 6.5C5.31897 6.5 5.32048 6.5 5.322 6.5C5.32352 6.5 5.32505 6.5 5.32657 6.5C5.3281 6.5 5.32963 6.5 5.33117 6.5C5.33271 6.5 5.33425 6.5 5.33579 6.5C5.33734 6.5 5.33889 6.5 5.34044 6.5C5.342 6.5 5.34356 6.5 5.34512 6.5C5.34669 6.5 5.34825 6.5 5.34983 6.5C5.3514 6.5 5.35298 6.5 5.35456 6.5C5.35614 6.5 5.35772 6.5 5.35931 6.5C5.3609 6.5 5.3625 6.5 5.3641 6.5C5.3657 6.5 5.3673 6.5 5.36891 6.5C5.37051 6.5 5.37213 6.5 5.37374 6.5C5.37536 6.5 5.37698 6.5 5.3786 6.5C5.38023 6.5 5.38186 6.5 5.38349 6.5C5.38512 6.5 5.38676 6.5 5.3884 6.5C5.39005 6.5 5.39169 6.5 5.39334 6.5C5.39499 6.5 5.39665 6.5 5.39831 6.5C5.39997 6.5 5.40163 6.5 5.4033 6.5C5.40496 6.5 5.40664 6.5 5.40831 6.5C5.40999 6.5 5.41167 6.5 5.41335 6.5C5.41504 6.5 5.41672 6.5 5.41842 6.5C5.42011 6.5 5.42181 6.5 5.42351 6.5C5.42521 6.5 5.42691 6.5 5.42862 6.5C5.43033 6.5 5.43204 6.5 5.43376 6.5C5.43548 6.5 5.4372 6.5 5.43893 6.5C5.44065 6.5 5.44238 6.5 5.44411 6.5C5.44585 6.5 5.44759 6.5 5.44933 6.5C5.45107 6.5 5.45282 6.5 5.45457 6.5C5.45632 6.5 5.45807 6.5 5.45983 6.5C5.46159 6.5 5.46335 6.5 5.46511 6.5C5.46688 6.5 5.46865 6.5 5.47042 6.5C5.4722 6.5 5.47397 6.5 5.47576 6.5C5.47754 6.5 5.47932 6.5 5.48111 6.5C5.4829 6.5 5.4847 6.5 5.48649 6.5C5.48829 6.5 5.49009 6.5 5.4919 6.5C5.4937 6.5 5.49551 6.5 5.49733 6.5C5.49914 6.5 5.50096 6.5 5.50278 6.5C5.5046 6.5 5.50642 6.5 5.50825 6.5C5.51008 6.5 5.51191 6.5 5.51375 6.5C5.51559 6.5 5.51743 6.5 5.51927 6.5C5.52111 6.5 5.52296 6.5 5.52481 6.5C5.52667 6.5 5.52852 6.5 5.53038 6.5C5.53224 6.5 5.5341 6.5 5.53597 6.5C5.53784 6.5 5.53971 6.5 5.54158 6.5C5.54345 6.5 5.54533 6.5 5.54721 6.5C5.5491 6.5 5.55098 6.5 5.55287 6.5C5.55476 6.5 5.55665 6.5 5.55855 6.5C5.56044 6.5 5.56234 6.5 5.56425 6.5C5.56615 6.5 5.56806 6.5 5.56997 6.5C5.57188 6.5 5.5738 6.5 5.57571 6.5C5.57763 6.5 5.57955 6.5 5.58148 6.5C5.58341 6.5 5.58533 6.5 5.58727 6.5C5.5892 6.5 5.59114 6.5 5.59308 6.5C5.59502 6.5 5.59696 6.5 5.59891 6.5C5.60085 6.5 5.6028 6.5 5.60476 6.5C5.60671 6.5 5.60867 6.5 5.61063 6.5C5.61259 6.5 5.61456 6.5 5.61652 6.5C5.61849 6.5 5.62046 6.5 5.62244 6.5C5.62441 6.5 5.62639 6.5 5.62837 6.5C5.63036 6.5 5.63234 6.5 5.63433 6.5C5.63632 6.5 5.63831 6.5 5.64031 6.5C5.6423 6.5 5.6443 6.5 5.64631 6.5C5.64831 6.5 5.65031 6.5 5.65232 6.5C5.65433 6.5 5.65635 6.5 5.65836 6.5C5.66038 6.5 5.6624 6.5 5.66442 6.5C5.66644 6.5 5.66847 6.5 5.6705 6.5C5.67253 6.5 5.67456 6.5 5.6766 6.5C5.67863 6.5 5.68067 6.5 5.68272 6.5C5.68476 6.5 5.6868 6.5 5.68885 6.5C5.6909 6.5 5.69296 6.5 5.69501 6.5C5.69707 6.5 5.69913 6.5 5.70119 6.5C5.70325 6.5 5.70532 6.5 5.70738 6.5C5.70945 6.5 5.71153 6.5 5.7136 6.5C5.71568 6.5 5.71775 6.5 5.71984 6.5C5.72192 6.5 5.724 6.5 5.72609 6.5C5.72818 6.5 5.73027 6.5 5.73236 6.5C5.73446 6.5 5.73655 6.5 5.73865 6.5C5.74076 6.5 5.74286 6.5 5.74497 6.5C5.74707 6.5 5.74918 6.5 5.75129 6.5C5.75341 6.5 5.75552 6.5 5.75764 6.5C5.75976 6.5 5.76188 6.5 5.76401 6.5C5.76613 6.5 5.76826 6.5 5.77039 6.5C5.77252 6.5 5.77466 6.5 5.7768 6.5C5.77893 6.5 5.78107 6.5 5.78322 6.5C5.78536 6.5 5.78751 6.5 5.78966 6.5C5.7918 6.5 5.79396 6.5 5.79611 6.5C5.79827 6.5 5.80043 6.5 5.80259 6.5C5.80475 6.5 5.80691 6.5 5.80908 6.5C5.81125 6.5 5.81342 6.5 5.81559 6.5C5.81776 6.5 5.81994 6.5 5.82212 6.5C5.82429 6.5 5.82647 6.5 5.82866 6.5C5.83084 6.5 5.83303 6.5 5.83522 6.5C5.83741 6.5 5.8396 6.5 5.8418 6.5C5.84399 6.5 5.84619 6.5 5.84839 6.5C5.8506 6.5 5.8528 6.5 5.85501 6.5C5.85721 6.5 5.85942 6.5 5.86164 6.5C5.86385 6.5 5.86606 6.5 5.86828 6.5C5.8705 6.5 5.87272 6.5 5.87494 6.5C5.87717 6.5 5.87939 6.5 5.88162 6.5C5.88385 6.5 5.88608 6.5 5.88832 6.5C5.89055 6.5 5.89279 6.5 5.89503 6.5C5.89727 6.5 5.89951 6.5 5.90176 6.5C5.904 6.5 5.90625 6.5 5.9085 6.5C5.91075 6.5 5.913 6.5 5.91526 6.5C5.91751 6.5 5.91977 6.5 5.92203 6.5C5.92429 6.5 5.92656 6.5 5.92882 6.5C5.93109 6.5 5.93336 6.5 5.93563 6.5C5.9379 6.5 5.94017 6.5 5.94245 6.5C5.94473 6.5 5.947 6.5 5.94929 6.5C5.95157 6.5 5.95385 6.5 5.95614 6.5C5.95842 6.5 5.96071 6.5 5.963 6.5C5.9653 6.5 5.96759 6.5 5.96989 6.5C5.97218 6.5 5.97448 6.5 5.97678 6.5C5.97908 6.5 5.98139 6.5 5.98369 6.5C5.986 6.5 5.98831 6.5 5.99062 6.5C5.99293 6.5 5.99524 6.5 5.99756 6.5C5.99988 6.5 6.00219 6.5 6.00452 6.5C6.00684 6.5 6.00916 6.5 6.01148 6.5C6.01381 6.5 6.01614 6.5 6.01847 6.5C6.0208 6.5 6.02313 6.5 6.02547 6.5C6.0278 6.5 6.03014 6.5 6.03248 6.5C6.03482 6.5 6.03716 6.5 6.0395 6.5C6.04185 6.5 6.04419 6.5 6.04654 6.5C6.04889 6.5 6.05124 6.5 6.05359 6.5C6.05595 6.5 6.0583 6.5 6.06066 6.5C6.06302 6.5 6.06538 6.5 6.06774 6.5C6.0701 6.5 6.07247 6.5 6.07483 6.5C6.0772 6.5 6.07957 6.5 6.08194 6.5C6.08431 6.5 6.08668 6.5 6.08906 6.5C6.09143 6.5 6.09381 6.5 6.09619 6.5C6.09857 6.5 6.10095 6.5 6.10333 6.5C6.10572 6.5 6.1081 6.5 6.11049 6.5C6.11288 6.5 6.11527 6.5 6.11766 6.5C6.12006 6.5 6.12245 6.5 6.12485 6.5C6.12724 6.5 6.12964 6.5 6.13204 6.5C6.13444 6.5 6.13684 6.5 6.13925 6.5C6.14165 6.5 6.14406 6.5 6.14647 6.5C6.14888 6.5 6.15129 6.5 6.1537 6.5C6.15611 6.5 6.15853 6.5 6.16094 6.5C6.16336 6.5 6.16578 6.5 6.1682 6.5C6.17062 6.5 6.17304 6.5 6.17547 6.5C6.17789 6.5 6.18032 6.5 6.18275 6.5C6.18517 6.5 6.1876 6.5 6.19004 6.5C6.19247 6.5 6.1949 6.5 6.19734 6.5C6.19977 6.5 6.20221 6.5 6.20465 6.5C6.20709 6.5 6.20953 6.5 6.21198 6.5C6.21442 6.5 6.21686 6.5 6.21931 6.5C6.22176 6.5 6.22421 6.5 6.22666 6.5C6.22911 6.5 6.23156 6.5 6.23401 6.5C6.23647 6.5 6.23893 6.5 6.24138 6.5C6.24384 6.5 6.2463 6.5 6.24876 6.5C6.25122 6.5 6.25369 6.5 6.25615 6.5C6.25862 6.5 6.26108 6.5 6.26355 6.5C6.26602 6.5 6.26849 6.5 6.27096 6.5C6.27343 6.5 6.27591 6.5 6.27838 6.5C6.28086 6.5 6.28333 6.5 6.28581 6.5C6.28829 6.5 6.29077 6.5 6.29325 6.5C6.29573 6.5 6.29822 6.5 6.3007 6.5C6.30319 6.5 6.30567 6.5 6.30816 6.5C6.31065 6.5 6.31314 6.5 6.31563 6.5C6.31812 6.5 6.32061 6.5 6.32311 6.5C6.3256 6.5 6.3281 6.5 6.3306 6.5C6.33309 6.5 6.33559 6.5 6.33809 6.5C6.34059 6.5 6.3431 6.5 6.3456 6.5C6.3481 6.5 6.35061 6.5 6.35312 6.5C6.35562 6.5 6.35813 6.5 6.36064 6.5C6.36315 6.5 6.36566 6.5 6.36818 6.5C6.37069 6.5 6.3732 6.5 6.37572 6.5C6.37823 6.5 6.38075 6.5 6.38327 6.5C6.38579 6.5 6.38831 6.5 6.39083 6.5C6.39335 6.5 6.39587 6.5 6.3984 6.5C6.40092 6.5 6.40345 6.5 6.40597 6.5C6.4085 6.5 6.41103 6.5 6.41356 6.5C6.41609 6.5 6.41862 6.5 6.42115 6.5C6.42368 6.5 6.42621 6.5 6.42875 6.5C6.43128 6.5 6.43382 6.5 6.43636 6.5C6.4389 6.5 6.44143 6.5 6.44397 6.5C6.44651 6.5 6.44906 6.5 6.4516 6.5C6.45414 6.5 6.45668 6.5 6.45923 6.5C6.46177 6.5 6.46432 6.5 6.46687 6.5C6.46941 6.5 6.47196 6.5 6.47451 6.5C6.47706 6.5 6.47961 6.5 6.48217 6.5C6.48472 6.5 6.48727 6.5 6.48983 6.5C6.49238 6.5 6.49494 6.5 6.49749 6.5C6.50005 6.5 6.50261 6.5 6.50517 6.5C6.50773 6.5 6.51029 6.5 6.51285 6.5C6.51541 6.5 6.51797 6.5 6.52054 6.5C6.5231 6.5 6.52566 6.5 6.52823 6.5C6.5308 6.5 6.53336 6.5 6.53593 6.5C6.5385 6.5 6.54107 6.5 6.54364 6.5C6.54621 6.5 6.54878 6.5 6.55135 6.5C6.55392 6.5 6.55649 6.5 6.55907 6.5C6.56164 6.5 6.56422 6.5 6.56679 6.5C6.56937 6.5 6.57195 6.5 6.57452 6.5C6.5771 6.5 6.57968 6.5 6.58226 6.5C6.58484 6.5 6.58742 6.5 6.59 6.5C6.59258 6.5 6.59517 6.5 6.59775 6.5C6.60033 6.5 6.60292 6.5 6.6055 6.5C6.60809 6.5 6.61067 6.5 6.61326 6.5C6.61585 6.5 6.61844 6.5 6.62102 6.5C6.62361 6.5 6.6262 6.5 6.62879 6.5C6.63138 6.5 6.63397 6.5 6.63657 6.5C6.63916 6.5 6.64175 6.5 6.64434 6.5C6.64694 6.5 6.64953 6.5 6.65213 6.5C6.65472 6.5 6.65732 6.5 6.65992 6.5C6.66251 6.5 6.66511 6.5 6.66771 6.5C6.67031 6.5 6.6729 6.5 6.6755 6.5C6.6781 6.5 6.6807 6.5 6.6833 6.5C6.68591 6.5 6.68851 6.5 6.69111 6.5C6.69371 6.5 6.69632 6.5 6.69892 6.5C6.70152 6.5 6.70413 6.5 6.70673 6.5C6.70934 6.5 6.71194 6.5 6.71455 6.5C6.71716 6.5 6.71976 6.5 6.72237 6.5C6.72498 6.5 6.72759 6.5 6.73019 6.5C6.7328 6.5 6.73541 6.5 6.73802 6.5C6.74063 6.5 6.74324 6.5 6.74585 6.5C6.74846 6.5 6.75108 6.5 6.75369 6.5C6.7563 6.5 6.75891 6.5 6.76153 6.5C6.76414 6.5 6.76675 6.5 6.76937 6.5C6.77198 6.5 6.7746 6.5 6.77721 6.5C6.77983 6.5 6.78244 6.5 6.78506 6.5C6.78767 6.5 6.79029 6.5 6.79291 6.5C6.79552 6.5 6.79814 6.5 6.80076 6.5C6.80338 6.5 6.80599 6.5 6.80861 6.5C6.81123 6.5 6.81385 6.5 6.81647 6.5C6.81909 6.5 6.82171 6.5 6.82433 6.5C6.82695 6.5 6.82957 6.5 6.83219 6.5C6.83481 6.5 6.83743 6.5 6.84005 6.5C6.84268 6.5 6.8453 6.5 6.84792 6.5C6.85054 6.5 6.85316 6.5 6.85579 6.5C6.85841 6.5 6.86103 6.5 6.86366 6.5C6.86628 6.5 6.8689 6.5 6.87153 6.5C6.87415 6.5 6.87678 6.5 6.8794 6.5C6.88202 6.5 6.88465 6.5 6.88727 6.5C6.8899 6.5 6.89252 6.5 6.89515 6.5C6.89777 6.5 6.9004 6.5 6.90302 6.5C6.90565 6.5 6.90828 6.5 6.9109 6.5C6.91353 6.5 6.91615 6.5 6.91878 6.5C6.92141 6.5 6.92403 6.5 6.92666 6.5C6.92929 6.5 6.93191 6.5 6.93454 6.5C6.93717 6.5 6.93979 6.5 6.94242 6.5C6.94505 6.5 6.94767 6.5 6.9503 6.5C6.95293 6.5 6.95555 6.5 6.95818 6.5C6.96081 6.5 6.96344 6.5 6.96606 6.5C6.96869 6.5 6.97132 6.5 6.97394 6.5C6.97657 6.5 6.9792 6.5 6.98183 6.5C6.98445 6.5 6.98708 6.5 6.98971 6.5C6.99234 6.5 6.99496 6.5 6.99759 6.5C7.00022 6.5 7.00284 6.5 7.00547 6.5C7.0081 6.5 7.01073 6.5 7.01335 6.5C7.01598 6.5 7.01861 6.5 7.02123 6.5C7.02386 6.5 7.02649 6.5 7.02911 6.5C7.03174 6.5 7.03437 6.5 7.03699 6.5C7.03962 6.5 7.04225 6.5 7.04487 6.5C7.0475 6.5 7.05012 6.5 7.05275 6.5C7.05537 6.5 7.058 6.5 7.06063 6.5C7.06325 6.5 7.06588 6.5 7.0685 6.5C7.07113 6.5 7.07375 6.5 7.07637 6.5C7.079 6.5 7.08162 6.5 7.08425 6.5C7.08687 6.5 7.0895 6.5 7.09212 6.5C7.09474 6.5 7.09737 6.5 7.09999 6.5C7.10261 6.5 7.10523 6.5 7.10786 6.5C7.11048 6.5 7.1131 6.5 7.11572 6.5C7.11834 6.5 7.12097 6.5 7.12359 6.5C7.12621 6.5 7.12883 6.5 7.13145 6.5C7.13407 6.5 7.13669 6.5 7.13931 6.5C7.14193 6.5 7.14455 6.5 7.14717 6.5C7.14979 6.5 7.1524 6.5 7.15502 6.5C7.15764 6.5 7.16026 6.5 7.16288 6.5C7.16549 6.5 7.16811 6.5 7.17073 6.5C7.17334 6.5 7.17596 6.5 7.17857 6.5C7.18119 6.5 7.1838 6.5 7.18642 6.5C7.18903 6.5 7.19165 6.5 7.19426 6.5C7.19687 6.5 7.19949 6.5 7.2021 6.5C7.20471 6.5 7.20732 6.5 7.20994 6.5C7.21255 6.5 7.21516 6.5 7.21777 6.5C7.22038 6.5 7.22299 6.5 7.2256 6.5C7.22821 6.5 7.23081 6.5 7.23342 6.5C7.23603 6.5 7.23864 6.5 7.24124 6.5C7.24385 6.5 7.24646 6.5 7.24906 6.5C7.25167 6.5 7.25427 6.5 7.25688 6.5C7.25948 6.5 7.26209 6.5 7.26469 6.5C7.26729 6.5 7.26989 6.5 7.27249 6.5C7.2751 6.5 7.2777 6.5 7.2803 6.5C7.2829 6.5 7.2855 6.5 7.2881 6.5C7.29069 6.5 7.29329 6.5 7.29589 6.5C7.29849 6.5 7.30108 6.5 7.30368 6.5C7.30627 6.5 7.30887 6.5 7.31146 6.5C7.31406 6.5 7.31665 6.5 7.31924 6.5C7.32184 6.5 7.32443 6.5 7.32702 6.5C7.32961 6.5 7.3322 6.5 7.33479 6.5C7.33738 6.5 7.33997 6.5 7.34255 6.5C7.34514 6.5 7.34773 6.5 7.35031 6.5C7.3529 6.5 7.35548 6.5 7.35807 6.5C7.36065 6.5 7.36324 6.5 7.36582 6.5C7.3684 6.5 7.37098 6.5 7.37356 6.5C7.37614 6.5 7.37872 6.5 7.3813 6.5C7.38388 6.5 7.38646 6.5 7.38903 6.5C7.39161 6.5 7.39419 6.5 7.39676 6.5C7.39934 6.5 7.40191 6.5 7.40448 6.5C7.40705 6.5 7.40963 6.5 7.4122 6.5C7.41477 6.5 7.41734 6.5 7.41991 6.5C7.42247 6.5 7.42504 6.5 7.42761 6.5C7.43017 6.5 7.43274 6.5 7.4353 6.5C7.43787 6.5 7.44043 6.5 7.44299 6.5C7.44556 6.5 7.44812 6.5 7.45068 6.5C7.45324 6.5 7.4558 6.5 7.45835 6.5C7.46091 6.5 7.46347 6.5 7.46602 6.5C7.46858 6.5 7.47113 6.5 7.47369 6.5C7.47624 6.5 7.47879 6.5 7.48134 6.5C7.48389 6.5 7.48644 6.5 7.48899 6.5C7.49154 6.5 7.49408 6.5 7.49663 6.5C7.49918 6.5 7.50172 6.5 7.50426 6.5C7.50681 6.5 7.50935 6.5 7.51189 6.5C7.51443 6.5 7.51697 6.5 7.51951 6.5C7.52205 6.5 7.52459 6.5 7.52712 6.5C7.52966 6.5 7.53219 6.5 7.53472 6.5C7.53726 6.5 7.53979 6.5 7.54232 6.5C7.54485 6.5 7.54738 6.5 7.54991 6.5C7.55243 6.5 7.55496 6.5 7.55749 6.5C7.56001 6.5 7.56253 6.5 7.56506 6.5C7.56758 6.5 7.5701 6.5 7.57262 6.5C7.57514 6.5 7.57766 6.5 7.58017 6.5C7.58269 6.5 7.58521 6.5 7.58772 6.5C7.59023 6.5 7.59275 6.5 7.59526 6.5C7.59777 6.5 7.60028 6.5 7.60278 6.5C7.60529 6.5 7.6078 6.5 7.6103 6.5C7.61281 6.5 7.61531 6.5 7.61781 6.5C7.62031 6.5 7.62281 6.5 7.62531 6.5C7.62781 6.5 7.63031 6.5 7.63281 6.5C7.6353 6.5 7.6378 6.5 7.64029 6.5C7.64278 6.5 7.64527 6.5 7.64776 6.5C7.65025 6.5 7.65274 6.5 7.65522 6.5C7.65771 6.5 7.66019 6.5 7.66268 6.5C7.66516 6.5 7.66764 6.5 7.67012 6.5C7.6726 6.5 7.67508 6.5 7.67755 6.5C7.68003 6.5 7.68251 6.5 7.68498 6.5C7.68745 6.5 7.68992 6.5 7.69239 6.5C7.69486 6.5 7.69733 6.5 7.69979 6.5C7.70226 6.5 7.70473 6.5 7.70719 6.5C7.70965 6.5 7.71211 6.5 7.71457 6.5C7.71703 6.5 7.71949 6.5 7.72194 6.5C7.7244 6.5 7.72685 6.5 7.7293 6.5C7.73176 6.5 7.73421 6.5 7.73665 6.5C7.7391 6.5 7.74155 6.5 7.74399 6.5C7.74644 6.5 7.74888 6.5 7.75132 6.5C7.75376 6.5 7.7562 6.5 7.75864 6.5C7.76108 6.5 7.76351 6.5 7.76594 6.5C7.76838 6.5 7.77081 6.5 7.77324 6.5C7.77567 6.5 7.7781 6.5 7.78052 6.5C7.78295 6.5 7.78537 6.5 7.78779 6.5C7.79022 6.5 7.79264 6.5 7.79505 6.5C7.79747 6.5 7.79989 6.5 7.8023 6.5C7.80472 6.5 7.80713 6.5 7.80954 6.5C7.81195 6.5 7.81436 6.5 7.81676 6.5C7.81917 6.5 7.82157 6.5 7.82397 6.5C7.82638 6.5 7.82878 6.5 7.83117 6.5C7.83357 6.5 7.83597 6.5 7.83836 6.5C7.84075 6.5 7.84315 6.5 7.84554 6.5C7.84793 6.5 7.85031 6.5 7.8527 6.5C7.85508 6.5 7.85747 6.5 7.85985 6.5C7.86223 6.5 7.86461 6.5 7.86698 6.5C7.86936 6.5 7.87174 6.5 7.87411 6.5C7.87648 6.5 7.87885 6.5 7.88122 6.5C7.88359 6.5 7.88595 6.5 7.88832 6.5C7.89068 6.5 7.89304 6.5 7.8954 6.5C7.89776 6.5 7.90012 6.5 7.90247 6.5C7.90483 6.5 7.90718 6.5 7.90953 6.5C7.91188 6.5 7.91423 6.5 7.91657 6.5C7.91892 6.5 7.92126 6.5 7.9236 6.5C7.92594 6.5 7.92828 6.5 7.93062 6.5C7.93296 6.5 7.93529 6.5 7.93762 6.5C7.93995 6.5 7.94228 6.5 7.94461 6.5C7.94694 6.5 7.94926 6.5 7.95159 6.5C7.95391 6.5 7.95623 6.5 7.95855 6.5C7.96086 6.5 7.96318 6.5 7.96549 6.5C7.9678 6.5 7.97011 6.5 7.97242 6.5C7.97473 6.5 7.97704 6.5 7.97934 6.5C7.98164 6.5 7.98394 6.5 7.98624 6.5C7.98854 6.5 7.99083 6.5 7.99313 6.5C7.99542 6.5 7.99771 6.5 8 6.5V5.5C7.99771 5.5 7.99542 5.5 7.99313 5.5C7.99083 5.5 7.98854 5.5 7.98624 5.5C7.98394 5.5 7.98164 5.5 7.97934 5.5C7.97704 5.5 7.97473 5.5 7.97242 5.5C7.97011 5.5 7.9678 5.5 7.96549 5.5C7.96318 5.5 7.96086 5.5 7.95855 5.5C7.95623 5.5 7.95391 5.5 7.95159 5.5C7.94926 5.5 7.94694 5.5 7.94461 5.5C7.94228 5.5 7.93995 5.5 7.93762 5.5C7.93529 5.5 7.93296 5.5 7.93062 5.5C7.92828 5.5 7.92594 5.5 7.9236 5.5C7.92126 5.5 7.91892 5.5 7.91657 5.5C7.91423 5.5 7.91188 5.5 7.90953 5.5C7.90718 5.5 7.90483 5.5 7.90247 5.5C7.90012 5.5 7.89776 5.5 7.8954 5.5C7.89304 5.5 7.89068 5.5 7.88832 5.5C7.88595 5.5 7.88359 5.5 7.88122 5.5C7.87885 5.5 7.87648 5.5 7.87411 5.5C7.87174 5.5 7.86936 5.5 7.86698 5.5C7.86461 5.5 7.86223 5.5 7.85985 5.5C7.85747 5.5 7.85508 5.5 7.8527 5.5C7.85031 5.5 7.84793 5.5 7.84554 5.5C7.84315 5.5 7.84075 5.5 7.83836 5.5C7.83597 5.5 7.83357 5.5 7.83117 5.5C7.82878 5.5 7.82638 5.5 7.82397 5.5C7.82157 5.5 7.81917 5.5 7.81676 5.5C7.81436 5.5 7.81195 5.5 7.80954 5.5C7.80713 5.5 7.80472 5.5 7.8023 5.5C7.79989 5.5 7.79747 5.5 7.79505 5.5C7.79264 5.5 7.79022 5.5 7.78779 5.5C7.78537 5.5 7.78295 5.5 7.78052 5.5C7.7781 5.5 7.77567 5.5 7.77324 5.5C7.77081 5.5 7.76838 5.5 7.76594 5.5C7.76351 5.5 7.76108 5.5 7.75864 5.5C7.7562 5.5 7.75376 5.5 7.75132 5.5C7.74888 5.5 7.74644 5.5 7.74399 5.5C7.74155 5.5 7.7391 5.5 7.73665 5.5C7.73421 5.5 7.73176 5.5 7.7293 5.5C7.72685 5.5 7.7244 5.5 7.72194 5.5C7.71949 5.5 7.71703 5.5 7.71457 5.5C7.71211 5.5 7.70965 5.5 7.70719 5.5C7.70473 5.5 7.70226 5.5 7.69979 5.5C7.69733 5.5 7.69486 5.5 7.69239 5.5C7.68992 5.5 7.68745 5.5 7.68498 5.5C7.68251 5.5 7.68003 5.5 7.67755 5.5C7.67508 5.5 7.6726 5.5 7.67012 5.5C7.66764 5.5 7.66516 5.5 7.66268 5.5C7.66019 5.5 7.65771 5.5 7.65522 5.5C7.65274 5.5 7.65025 5.5 7.64776 5.5C7.64527 5.5 7.64278 5.5 7.64029 5.5C7.6378 5.5 7.6353 5.5 7.63281 5.5C7.63031 5.5 7.62781 5.5 7.62531 5.5C7.62281 5.5 7.62031 5.5 7.61781 5.5C7.61531 5.5 7.61281 5.5 7.6103 5.5C7.6078 5.5 7.60529 5.5 7.60278 5.5C7.60028 5.5 7.59777 5.5 7.59526 5.5C7.59275 5.5 7.59023 5.5 7.58772 5.5C7.58521 5.5 7.58269 5.5 7.58017 5.5C7.57766 5.5 7.57514 5.5 7.57262 5.5C7.5701 5.5 7.56758 5.5 7.56506 5.5C7.56253 5.5 7.56001 5.5 7.55749 5.5C7.55496 5.5 7.55243 5.5 7.54991 5.5C7.54738 5.5 7.54485 5.5 7.54232 5.5C7.53979 5.5 7.53726 5.5 7.53472 5.5C7.53219 5.5 7.52966 5.5 7.52712 5.5C7.52459 5.5 7.52205 5.5 7.51951 5.5C7.51697 5.5 7.51443 5.5 7.51189 5.5C7.50935 5.5 7.50681 5.5 7.50426 5.5C7.50172 5.5 7.49918 5.5 7.49663 5.5C7.49408 5.5 7.49154 5.5 7.48899 5.5C7.48644 5.5 7.48389 5.5 7.48134 5.5C7.47879 5.5 7.47624 5.5 7.47369 5.5C7.47113 5.5 7.46858 5.5 7.46602 5.5C7.46347 5.5 7.46091 5.5 7.45835 5.5C7.4558 5.5 7.45324 5.5 7.45068 5.5C7.44812 5.5 7.44556 5.5 7.44299 5.5C7.44043 5.5 7.43787 5.5 7.4353 5.5C7.43274 5.5 7.43017 5.5 7.42761 5.5C7.42504 5.5 7.42247 5.5 7.41991 5.5C7.41734 5.5 7.41477 5.5 7.4122 5.5C7.40963 5.5 7.40705 5.5 7.40448 5.5C7.40191 5.5 7.39934 5.5 7.39676 5.5C7.39419 5.5 7.39161 5.5 7.38903 5.5C7.38646 5.5 7.38388 5.5 7.3813 5.5C7.37872 5.5 7.37614 5.5 7.37356 5.5C7.37098 5.5 7.3684 5.5 7.36582 5.5C7.36324 5.5 7.36065 5.5 7.35807 5.5C7.35548 5.5 7.3529 5.5 7.35031 5.5C7.34773 5.5 7.34514 5.5 7.34255 5.5C7.33997 5.5 7.33738 5.5 7.33479 5.5C7.3322 5.5 7.32961 5.5 7.32702 5.5C7.32443 5.5 7.32184 5.5 7.31924 5.5C7.31665 5.5 7.31406 5.5 7.31146 5.5C7.30887 5.5 7.30627 5.5 7.30368 5.5C7.30108 5.5 7.29849 5.5 7.29589 5.5C7.29329 5.5 7.29069 5.5 7.2881 5.5C7.2855 5.5 7.2829 5.5 7.2803 5.5C7.2777 5.5 7.2751 5.5 7.27249 5.5C7.26989 5.5 7.26729 5.5 7.26469 5.5C7.26209 5.5 7.25948 5.5 7.25688 5.5C7.25427 5.5 7.25167 5.5 7.24906 5.5C7.24646 5.5 7.24385 5.5 7.24124 5.5C7.23864 5.5 7.23603 5.5 7.23342 5.5C7.23081 5.5 7.22821 5.5 7.2256 5.5C7.22299 5.5 7.22038 5.5 7.21777 5.5C7.21516 5.5 7.21255 5.5 7.20994 5.5C7.20732 5.5 7.20471 5.5 7.2021 5.5C7.19949 5.5 7.19687 5.5 7.19426 5.5C7.19165 5.5 7.18903 5.5 7.18642 5.5C7.1838 5.5 7.18119 5.5 7.17857 5.5C7.17596 5.5 7.17334 5.5 7.17073 5.5C7.16811 5.5 7.16549 5.5 7.16288 5.5C7.16026 5.5 7.15764 5.5 7.15502 5.5C7.1524 5.5 7.14979 5.5 7.14717 5.5C7.14455 5.5 7.14193 5.5 7.13931 5.5C7.13669 5.5 7.13407 5.5 7.13145 5.5C7.12883 5.5 7.12621 5.5 7.12359 5.5C7.12097 5.5 7.11834 5.5 7.11572 5.5C7.1131 5.5 7.11048 5.5 7.10786 5.5C7.10523 5.5 7.10261 5.5 7.09999 5.5C7.09737 5.5 7.09474 5.5 7.09212 5.5C7.0895 5.5 7.08687 5.5 7.08425 5.5C7.08162 5.5 7.079 5.5 7.07637 5.5C7.07375 5.5 7.07113 5.5 7.0685 5.5C7.06588 5.5 7.06325 5.5 7.06063 5.5C7.058 5.5 7.05537 5.5 7.05275 5.5C7.05012 5.5 7.0475 5.5 7.04487 5.5C7.04225 5.5 7.03962 5.5 7.03699 5.5C7.03437 5.5 7.03174 5.5 7.02911 5.5C7.02649 5.5 7.02386 5.5 7.02123 5.5C7.01861 5.5 7.01598 5.5 7.01335 5.5C7.01073 5.5 7.0081 5.5 7.00547 5.5C7.00284 5.5 7.00022 5.5 6.99759 5.5C6.99496 5.5 6.99234 5.5 6.98971 5.5C6.98708 5.5 6.98445 5.5 6.98183 5.5C6.9792 5.5 6.97657 5.5 6.97394 5.5C6.97132 5.5 6.96869 5.5 6.96606 5.5C6.96344 5.5 6.96081 5.5 6.95818 5.5C6.95555 5.5 6.95293 5.5 6.9503 5.5C6.94767 5.5 6.94505 5.5 6.94242 5.5C6.93979 5.5 6.93717 5.5 6.93454 5.5C6.93191 5.5 6.92929 5.5 6.92666 5.5C6.92403 5.5 6.92141 5.5 6.91878 5.5C6.91615 5.5 6.91353 5.5 6.9109 5.5C6.90828 5.5 6.90565 5.5 6.90302 5.5C6.9004 5.5 6.89777 5.5 6.89515 5.5C6.89252 5.5 6.8899 5.5 6.88727 5.5C6.88465 5.5 6.88202 5.5 6.8794 5.5C6.87678 5.5 6.87415 5.5 6.87153 5.5C6.8689 5.5 6.86628 5.5 6.86366 5.5C6.86103 5.5 6.85841 5.5 6.85579 5.5C6.85316 5.5 6.85054 5.5 6.84792 5.5C6.8453 5.5 6.84268 5.5 6.84005 5.5C6.83743 5.5 6.83481 5.5 6.83219 5.5C6.82957 5.5 6.82695 5.5 6.82433 5.5C6.82171 5.5 6.81909 5.5 6.81647 5.5C6.81385 5.5 6.81123 5.5 6.80861 5.5C6.80599 5.5 6.80338 5.5 6.80076 5.5C6.79814 5.5 6.79552 5.5 6.79291 5.5C6.79029 5.5 6.78767 5.5 6.78506 5.5C6.78244 5.5 6.77983 5.5 6.77721 5.5C6.7746 5.5 6.77198 5.5 6.76937 5.5C6.76675 5.5 6.76414 5.5 6.76153 5.5C6.75891 5.5 6.7563 5.5 6.75369 5.5C6.75108 5.5 6.74846 5.5 6.74585 5.5C6.74324 5.5 6.74063 5.5 6.73802 5.5C6.73541 5.5 6.7328 5.5 6.73019 5.5C6.72759 5.5 6.72498 5.5 6.72237 5.5C6.71976 5.5 6.71716 5.5 6.71455 5.5C6.71194 5.5 6.70934 5.5 6.70673 5.5C6.70413 5.5 6.70152 5.5 6.69892 5.5C6.69632 5.5 6.69371 5.5 6.69111 5.5C6.68851 5.5 6.68591 5.5 6.6833 5.5C6.6807 5.5 6.6781 5.5 6.6755 5.5C6.6729 5.5 6.67031 5.5 6.66771 5.5C6.66511 5.5 6.66251 5.5 6.65992 5.5C6.65732 5.5 6.65472 5.5 6.65213 5.5C6.64953 5.5 6.64694 5.5 6.64434 5.5C6.64175 5.5 6.63916 5.5 6.63657 5.5C6.63397 5.5 6.63138 5.5 6.62879 5.5C6.6262 5.5 6.62361 5.5 6.62102 5.5C6.61844 5.5 6.61585 5.5 6.61326 5.5C6.61067 5.5 6.60809 5.5 6.6055 5.5C6.60292 5.5 6.60033 5.5 6.59775 5.5C6.59517 5.5 6.59258 5.5 6.59 5.5C6.58742 5.5 6.58484 5.5 6.58226 5.5C6.57968 5.5 6.5771 5.5 6.57452 5.5C6.57195 5.5 6.56937 5.5 6.56679 5.5C6.56422 5.5 6.56164 5.5 6.55907 5.5C6.55649 5.5 6.55392 5.5 6.55135 5.5C6.54878 5.5 6.54621 5.5 6.54364 5.5C6.54107 5.5 6.5385 5.5 6.53593 5.5C6.53336 5.5 6.5308 5.5 6.52823 5.5C6.52566 5.5 6.5231 5.5 6.52054 5.5C6.51797 5.5 6.51541 5.5 6.51285 5.5C6.51029 5.5 6.50773 5.5 6.50517 5.5C6.50261 5.5 6.50005 5.5 6.49749 5.5C6.49494 5.5 6.49238 5.5 6.48983 5.5C6.48727 5.5 6.48472 5.5 6.48217 5.5C6.47961 5.5 6.47706 5.5 6.47451 5.5C6.47196 5.5 6.46941 5.5 6.46687 5.5C6.46432 5.5 6.46177 5.5 6.45923 5.5C6.45668 5.5 6.45414 5.5 6.4516 5.5C6.44906 5.5 6.44651 5.5 6.44397 5.5C6.44143 5.5 6.4389 5.5 6.43636 5.5C6.43382 5.5 6.43128 5.5 6.42875 5.5C6.42621 5.5 6.42368 5.5 6.42115 5.5C6.41862 5.5 6.41609 5.5 6.41356 5.5C6.41103 5.5 6.4085 5.5 6.40597 5.5C6.40345 5.5 6.40092 5.5 6.3984 5.5C6.39587 5.5 6.39335 5.5 6.39083 5.5C6.38831 5.5 6.38579 5.5 6.38327 5.5C6.38075 5.5 6.37823 5.5 6.37572 5.5C6.3732 5.5 6.37069 5.5 6.36818 5.5C6.36566 5.5 6.36315 5.5 6.36064 5.5C6.35813 5.5 6.35562 5.5 6.35312 5.5C6.35061 5.5 6.3481 5.5 6.3456 5.5C6.3431 5.5 6.34059 5.5 6.33809 5.5C6.33559 5.5 6.33309 5.5 6.3306 5.5C6.3281 5.5 6.3256 5.5 6.32311 5.5C6.32061 5.5 6.31812 5.5 6.31563 5.5C6.31314 5.5 6.31065 5.5 6.30816 5.5C6.30567 5.5 6.30319 5.5 6.3007 5.5C6.29822 5.5 6.29573 5.5 6.29325 5.5C6.29077 5.5 6.28829 5.5 6.28581 5.5C6.28333 5.5 6.28086 5.5 6.27838 5.5C6.27591 5.5 6.27343 5.5 6.27096 5.5C6.26849 5.5 6.26602 5.5 6.26355 5.5C6.26108 5.5 6.25862 5.5 6.25615 5.5C6.25369 5.5 6.25122 5.5 6.24876 5.5C6.2463 5.5 6.24384 5.5 6.24138 5.5C6.23893 5.5 6.23647 5.5 6.23401 5.5C6.23156 5.5 6.22911 5.5 6.22666 5.5C6.22421 5.5 6.22176 5.5 6.21931 5.5C6.21686 5.5 6.21442 5.5 6.21198 5.5C6.20953 5.5 6.20709 5.5 6.20465 5.5C6.20221 5.5 6.19977 5.5 6.19734 5.5C6.1949 5.5 6.19247 5.5 6.19004 5.5C6.1876 5.5 6.18517 5.5 6.18275 5.5C6.18032 5.5 6.17789 5.5 6.17547 5.5C6.17304 5.5 6.17062 5.5 6.1682 5.5C6.16578 5.5 6.16336 5.5 6.16094 5.5C6.15853 5.5 6.15611 5.5 6.1537 5.5C6.15129 5.5 6.14888 5.5 6.14647 5.5C6.14406 5.5 6.14165 5.5 6.13925 5.5C6.13684 5.5 6.13444 5.5 6.13204 5.5C6.12964 5.5 6.12724 5.5 6.12485 5.5C6.12245 5.5 6.12006 5.5 6.11766 5.5C6.11527 5.5 6.11288 5.5 6.11049 5.5C6.1081 5.5 6.10572 5.5 6.10333 5.5C6.10095 5.5 6.09857 5.5 6.09619 5.5C6.09381 5.5 6.09143 5.5 6.08906 5.5C6.08668 5.5 6.08431 5.5 6.08194 5.5C6.07957 5.5 6.0772 5.5 6.07483 5.5C6.07247 5.5 6.0701 5.5 6.06774 5.5C6.06538 5.5 6.06302 5.5 6.06066 5.5C6.0583 5.5 6.05595 5.5 6.05359 5.5C6.05124 5.5 6.04889 5.5 6.04654 5.5C6.04419 5.5 6.04185 5.5 6.0395 5.5C6.03716 5.5 6.03482 5.5 6.03248 5.5C6.03014 5.5 6.0278 5.5 6.02547 5.5C6.02313 5.5 6.0208 5.5 6.01847 5.5C6.01614 5.5 6.01381 5.5 6.01148 5.5C6.00916 5.5 6.00684 5.5 6.00452 5.5C6.00219 5.5 5.99988 5.5 5.99756 5.5C5.99524 5.5 5.99293 5.5 5.99062 5.5C5.98831 5.5 5.986 5.5 5.98369 5.5C5.98139 5.5 5.97908 5.5 5.97678 5.5C5.97448 5.5 5.97218 5.5 5.96989 5.5C5.96759 5.5 5.9653 5.5 5.963 5.5C5.96071 5.5 5.95842 5.5 5.95614 5.5C5.95385 5.5 5.95157 5.5 5.94929 5.5C5.947 5.5 5.94473 5.5 5.94245 5.5C5.94017 5.5 5.9379 5.5 5.93563 5.5C5.93336 5.5 5.93109 5.5 5.92882 5.5C5.92656 5.5 5.92429 5.5 5.92203 5.5C5.91977 5.5 5.91751 5.5 5.91526 5.5C5.913 5.5 5.91075 5.5 5.9085 5.5C5.90625 5.5 5.904 5.5 5.90176 5.5C5.89951 5.5 5.89727 5.5 5.89503 5.5C5.89279 5.5 5.89055 5.5 5.88832 5.5C5.88608 5.5 5.88385 5.5 5.88162 5.5C5.87939 5.5 5.87717 5.5 5.87494 5.5C5.87272 5.5 5.8705 5.5 5.86828 5.5C5.86606 5.5 5.86385 5.5 5.86164 5.5C5.85942 5.5 5.85721 5.5 5.85501 5.5C5.8528 5.5 5.8506 5.5 5.84839 5.5C5.84619 5.5 5.84399 5.5 5.8418 5.5C5.8396 5.5 5.83741 5.5 5.83522 5.5C5.83303 5.5 5.83084 5.5 5.82866 5.5C5.82647 5.5 5.82429 5.5 5.82212 5.5C5.81994 5.5 5.81776 5.5 5.81559 5.5C5.81342 5.5 5.81125 5.5 5.80908 5.5C5.80691 5.5 5.80475 5.5 5.80259 5.5C5.80043 5.5 5.79827 5.5 5.79611 5.5C5.79396 5.5 5.7918 5.5 5.78966 5.5C5.78751 5.5 5.78536 5.5 5.78322 5.5C5.78107 5.5 5.77893 5.5 5.7768 5.5C5.77466 5.5 5.77252 5.5 5.77039 5.5C5.76826 5.5 5.76613 5.5 5.76401 5.5C5.76188 5.5 5.75976 5.5 5.75764 5.5C5.75552 5.5 5.75341 5.5 5.75129 5.5C5.74918 5.5 5.74707 5.5 5.74497 5.5C5.74286 5.5 5.74076 5.5 5.73865 5.5C5.73655 5.5 5.73446 5.5 5.73236 5.5C5.73027 5.5 5.72818 5.5 5.72609 5.5C5.724 5.5 5.72192 5.5 5.71984 5.5C5.71775 5.5 5.71568 5.5 5.7136 5.5C5.71153 5.5 5.70945 5.5 5.70738 5.5C5.70532 5.5 5.70325 5.5 5.70119 5.5C5.69913 5.5 5.69707 5.5 5.69501 5.5C5.69296 5.5 5.6909 5.5 5.68885 5.5C5.6868 5.5 5.68476 5.5 5.68272 5.5C5.68067 5.5 5.67863 5.5 5.6766 5.5C5.67456 5.5 5.67253 5.5 5.6705 5.5C5.66847 5.5 5.66644 5.5 5.66442 5.5C5.6624 5.5 5.66038 5.5 5.65836 5.5C5.65635 5.5 5.65433 5.5 5.65232 5.5C5.65031 5.5 5.64831 5.5 5.64631 5.5C5.6443 5.5 5.6423 5.5 5.64031 5.5C5.63831 5.5 5.63632 5.5 5.63433 5.5C5.63234 5.5 5.63036 5.5 5.62837 5.5C5.62639 5.5 5.62441 5.5 5.62244 5.5C5.62046 5.5 5.61849 5.5 5.61652 5.5C5.61456 5.5 5.61259 5.5 5.61063 5.5C5.60867 5.5 5.60671 5.5 5.60476 5.5C5.6028 5.5 5.60085 5.5 5.59891 5.5C5.59696 5.5 5.59502 5.5 5.59308 5.5C5.59114 5.5 5.5892 5.5 5.58727 5.5C5.58533 5.5 5.58341 5.5 5.58148 5.5C5.57955 5.5 5.57763 5.5 5.57571 5.5C5.5738 5.5 5.57188 5.5 5.56997 5.5C5.56806 5.5 5.56615 5.5 5.56425 5.5C5.56234 5.5 5.56044 5.5 5.55855 5.5C5.55665 5.5 5.55476 5.5 5.55287 5.5C5.55098 5.5 5.5491 5.5 5.54721 5.5C5.54533 5.5 5.54345 5.5 5.54158 5.5C5.53971 5.5 5.53784 5.5 5.53597 5.5C5.5341 5.5 5.53224 5.5 5.53038 5.5C5.52852 5.5 5.52667 5.5 5.52481 5.5C5.52296 5.5 5.52111 5.5 5.51927 5.5C5.51743 5.5 5.51559 5.5 5.51375 5.5C5.51191 5.5 5.51008 5.5 5.50825 5.5C5.50642 5.5 5.5046 5.5 5.50278 5.5C5.50096 5.5 5.49914 5.5 5.49733 5.5C5.49551 5.5 5.4937 5.5 5.4919 5.5C5.49009 5.5 5.48829 5.5 5.48649 5.5C5.4847 5.5 5.4829 5.5 5.48111 5.5C5.47932 5.5 5.47754 5.5 5.47576 5.5C5.47397 5.5 5.4722 5.5 5.47042 5.5C5.46865 5.5 5.46688 5.5 5.46511 5.5C5.46335 5.5 5.46159 5.5 5.45983 5.5C5.45807 5.5 5.45632 5.5 5.45457 5.5C5.45282 5.5 5.45107 5.5 5.44933 5.5C5.44759 5.5 5.44585 5.5 5.44411 5.5C5.44238 5.5 5.44065 5.5 5.43893 5.5C5.4372 5.5 5.43548 5.5 5.43376 5.5C5.43204 5.5 5.43033 5.5 5.42862 5.5C5.42691 5.5 5.42521 5.5 5.42351 5.5C5.42181 5.5 5.42011 5.5 5.41842 5.5C5.41672 5.5 5.41504 5.5 5.41335 5.5C5.41167 5.5 5.40999 5.5 5.40831 5.5C5.40664 5.5 5.40496 5.5 5.4033 5.5C5.40163 5.5 5.39997 5.5 5.39831 5.5C5.39665 5.5 5.39499 5.5 5.39334 5.5C5.39169 5.5 5.39005 5.5 5.3884 5.5C5.38676 5.5 5.38512 5.5 5.38349 5.5C5.38186 5.5 5.38023 5.5 5.3786 5.5C5.37698 5.5 5.37536 5.5 5.37374 5.5C5.37213 5.5 5.37051 5.5 5.36891 5.5C5.3673 5.5 5.3657 5.5 5.3641 5.5C5.3625 5.5 5.3609 5.5 5.35931 5.5C5.35772 5.5 5.35614 5.5 5.35456 5.5C5.35298 5.5 5.3514 5.5 5.34983 5.5C5.34825 5.5 5.34669 5.5 5.34512 5.5C5.34356 5.5 5.342 5.5 5.34044 5.5C5.33889 5.5 5.33734 5.5 5.33579 5.5C5.33425 5.5 5.33271 5.5 5.33117 5.5C5.32963 5.5 5.3281 5.5 5.32657 5.5C5.32505 5.5 5.32352 5.5 5.322 5.5C5.32048 5.5 5.31897 5.5 5.31746 5.5C5.31595 5.5 5.31445 5.5 5.31295 5.5C5.31145 5.5 5.30995 5.5 5.30846 5.5C5.30697 5.5 5.30548 5.5 5.304 5.5C5.30252 5.5 5.30104 5.5 5.29956 5.5C5.29809 5.5 5.29662 5.5 5.29516 5.5C5.2937 5.5 5.29224 5.5 5.29078 5.5C5.28933 5.5 5.28788 5.5 5.28643 5.5C5.28499 5.5 5.28355 5.5 5.28211 5.5C5.28068 5.5 5.27925 5.5 5.27782 5.5C5.27639 5.5 5.27497 5.5 5.27355 5.5C5.27214 5.5 5.27073 5.5 5.26932 5.5C5.26791 5.5 5.26651 5.5 5.26511 5.5C5.26371 5.5 5.26232 5.5 5.26093 5.5C5.25954 5.5 5.25816 5.5 5.25678 5.5C5.2554 5.5 5.25403 5.5 5.25266 5.5C5.25129 5.5 5.24993 5.5 5.24857 5.5C5.24721 5.5 5.24585 5.5 5.2445 5.5C5.24315 5.5 5.24181 5.5 5.24047 5.5C5.23913 5.5 5.23779 5.5 5.23646 5.5C5.23513 5.5 5.23381 5.5 5.23249 5.5C5.23117 5.5 5.22985 5.5 5.22854 5.5C5.22723 5.5 5.22593 5.5 5.22463 5.5C5.22333 5.5 5.22203 5.5 5.22074 5.5C5.21945 5.5 5.21816 5.5 5.21688 5.5C5.2156 5.5 5.21433 5.5 5.21306 5.5C5.21179 5.5 5.21052 5.5 5.20926 5.5C5.208 5.5 5.20674 5.5 5.20549 5.5C5.20424 5.5 5.203 5.5 5.20176 5.5C5.20052 5.5 5.19928 5.5 5.19805 5.5C5.19682 5.5 5.19559 5.5 5.19437 5.5C5.19315 5.5 5.19194 5.5 5.19073 5.5C5.18952 5.5 5.18832 5.5 5.18712 5.5C5.18592 5.5 5.18472 5.5 5.18353 5.5C5.18234 5.5 5.18116 5.5 5.17998 5.5C5.1788 5.5 5.17763 5.5 5.17646 5.5C5.17529 5.5 5.17413 5.5 5.17297 5.5C5.17181 5.5 5.17066 5.5 5.16951 5.5C5.16836 5.5 5.16722 5.5 5.16608 5.5C5.16495 5.5 5.16381 5.5 5.16269 5.5C5.16156 5.5 5.16044 5.5 5.15932 5.5C5.15821 5.5 5.1571 5.5 5.15599 5.5C5.15489 5.5 5.15379 5.5 5.15269 5.5C5.1516 5.5 5.15051 5.5 5.14942 5.5C5.14834 5.5 5.14726 5.5 5.14619 5.5C5.14511 5.5 5.14404 5.5 5.14298 5.5C5.14192 5.5 5.14086 5.5 5.13981 5.5C5.13876 5.5 5.13771 5.5 5.13667 5.5C5.13563 5.5 5.13459 5.5 5.13356 5.5C5.13253 5.5 5.13151 5.5 5.13049 5.5C5.12947 5.5 5.12845 5.5 5.12745 5.5C5.12644 5.5 5.12543 5.5 5.12444 5.5C5.12344 5.5 5.12245 5.5 5.12146 5.5C5.12048 5.5 5.11949 5.5 5.11852 5.5C5.11754 5.5 5.11657 5.5 5.11561 5.5C5.11464 5.5 5.11369 5.5 5.11273 5.5C5.11178 5.5 5.11083 5.5 5.10989 5.5C5.10895 5.5 5.10801 5.5 5.10708 5.5C5.10615 5.5 5.10522 5.5 5.1043 5.5C5.10338 5.5 5.10247 5.5 5.10156 5.5C5.10065 5.5 5.09975 5.5 5.09885 5.5C5.09796 5.5 5.09707 5.5 5.09618 5.5C5.09529 5.5 5.09441 5.5 5.09354 5.5C5.09267 5.5 5.0918 5.5 5.09093 5.5C5.09007 5.5 5.08921 5.5 5.08836 5.5C5.08751 5.5 5.08666 5.5 5.08582 5.5C5.08498 5.5 5.08415 5.5 5.08332 5.5C5.08249 5.5 5.08167 5.5 5.08085 5.5C5.08004 5.5 5.07923 5.5 5.07842 5.5C5.07761 5.5 5.07682 5.5 5.07602 5.5C5.07523 5.5 5.07444 5.5 5.07366 5.5C5.07288 5.5 5.0721 5.5 5.07133 5.5C5.07056 5.5 5.06979 5.5 5.06904 5.5C5.06828 5.5 5.06752 5.5 5.06678 5.5C5.06603 5.5 5.06529 5.5 5.06456 5.5C5.06382 5.5 5.06309 5.5 5.06237 5.5C5.06164 5.5 5.06093 5.5 5.06022 5.5C5.05951 5.5 5.0588 5.5 5.0581 5.5C5.0574 5.5 5.05671 5.5 5.05602 5.5C5.05533 5.5 5.05465 5.5 5.05398 5.5C5.0533 5.5 5.05263 5.5 5.05197 5.5C5.05131 5.5 5.05065 5.5 5.05 5.5C5.04935 5.5 5.0487 5.5 5.04806 5.5C5.04742 5.5 5.04679 5.5 5.04616 5.5C5.04554 5.5 5.04491 5.5 5.0443 5.5C5.04369 5.5 5.04308 5.5 5.04247 5.5C5.04187 5.5 5.04128 5.5 5.04069 5.5C5.04009 5.5 5.03951 5.5 5.03893 5.5C5.03835 5.5 5.03778 5.5 5.03722 5.5C5.03665 5.5 5.03609 5.5 5.03554 5.5C5.03499 5.5 5.03444 5.5 5.0339 5.5C5.03336 5.5 5.03282 5.5 5.03229 5.5C5.03177 5.5 5.03124 5.5 5.03073 5.5C5.03021 5.5 5.0297 5.5 5.0292 5.5C5.0287 5.5 5.0282 5.5 5.02771 5.5C5.02722 5.5 5.02673 5.5 5.02625 5.5C5.02578 5.5 5.0253 5.5 5.02484 5.5C5.02437 5.5 5.02391 5.5 5.02346 5.5C5.02301 5.5 5.02256 5.5 5.02212 5.5C5.02168 5.5 5.02125 5.5 5.02082 5.5C5.02039 5.5 5.01997 5.5 5.01956 5.5C5.01914 5.5 5.01873 5.5 5.01833 5.5C5.01793 5.5 5.01754 5.5 5.01715 5.5C5.01676 5.5 5.01637 5.5 5.016 5.5C5.01562 5.5 5.01525 5.5 5.01489 5.5C5.01453 5.5 5.01417 5.5 5.01382 5.5C5.01347 5.5 5.01313 5.5 5.01279 5.5C5.01245 5.5 5.01212 5.5 5.0118 5.5C5.01147 5.5 5.01115 5.5 5.01084 5.5C5.01053 5.5 5.01023 5.5 5.00993 5.5C5.00963 5.5 5.00934 5.5 5.00906 5.5C5.00877 5.5 5.00849 5.5 5.00822 5.5C5.00795 5.5 5.00769 5.5 5.00743 5.5C5.00717 5.5 5.00692 5.5 5.00667 5.5C5.00643 5.5 5.00619 5.5 5.00596 5.5C5.00572 5.5 5.0055 5.5 5.00528 5.5C5.00506 5.5 5.00485 5.5 5.00465 5.5C5.00444 5.5 5.00424 5.5 5.00405 5.5C5.00386 5.5 5.00367 5.5 5.0035 5.5C5.00332 5.5 5.00315 5.5 5.00298 5.5C5.00282 5.5 5.00266 5.5 5.00251 5.5C5.00236 5.5 5.00221 5.5 5.00207 5.5C5.00194 5.5 5.00181 5.5 5.00168 5.5C5.00156 5.5 5.00144 5.5 5.00133 5.5C5.00122 5.5 5.00112 5.5 5.00102 5.5C5.00092 5.5 5.00083 5.5 5.00075 5.5C5.00067 5.5 5.00059 5.5 5.00052 5.5C5.00045 5.5 5.00039 5.5 5.00033 5.5C5.00028 5.5 5.00023 5.5 5.00019 5.5C5.00015 5.5 5.00011 5.5 5.00008 5.5C5.00006 5.5 5.00003 5.5 5.00002 5.5C5.00001 5.5 5 5.5 5 6ZM2.26008 13.6382C2.49846 14.115 2.88504 14.5015 3.3618 14.7399L3.80902 13.8455C3.52578 13.7039 3.29612 13.4742 3.15451 13.191L2.26008 13.6382ZM19 12.3536C19 11.9946 18.8574 11.6503 18.6036 11.3964L17.8964 12.1036C17.9628 12.1699 18 12.2598 18 12.3536H19ZM18.6036 17.6036C18.8574 17.3497 19 17.0054 19 16.6464H18C18 16.7402 17.9628 16.8301 17.8964 16.8964L18.6036 17.6036ZM17.6464 18C18.0054 18 18.3497 17.8574 18.6036 17.6036L17.8964 16.8964C17.8301 16.9628 17.7402 17 17.6464 17V18ZM10.3964 17.6036C10.6503 17.8574 10.9946 18 11.3536 18V17C11.2598 17 11.1699 16.9628 11.1036 16.8964L10.3964 17.6036ZM10 16.6464C10 17.0054 10.1426 17.3497 10.3964 17.6036L11.1036 16.8964C11.0372 16.8301 11 16.7402 11 16.6464H10ZM11.3536 11C10.9946 11 10.6503 11.1426 10.3964 11.3964L11.1036 12.1036C11.1699 12.0372 11.2598 12 11.3536 12V11ZM17.6464 12C17.7402 12 17.8301 12.0372 17.8964 12.1036L18.6036 11.3964C18.3497 11.1426 18.0054 11 17.6464 11V12ZM4.46353 14C4.23632 14 4.01224 13.9471 3.80902 13.8455L3.3618 14.7399C3.70388 14.911 4.08108 15 4.46353 15V14ZM2 12.5365C2 12.9189 2.08904 13.2961 2.26008 13.6382L3.15451 13.191C3.0529 12.9878 3 12.7637 3 12.5365H2ZM2.26008 4.3618C2.08904 4.70388 2 5.08108 2 5.46353H3C3 5.23632 3.0529 5.01224 3.15451 4.80902L2.26008 4.3618ZM3.3618 3.26008C2.88504 3.49846 2.49846 3.88504 2.26008 4.3618L3.15451 4.80902C3.29612 4.52578 3.52578 4.29612 3.80902 4.15451L3.3618 3.26008ZM4.46353 3C4.08108 3 3.70388 3.08904 3.3618 3.26008L3.80902 4.15451C4.01224 4.0529 4.23632 4 4.46353 4V3ZM16.6382 3.26008C16.2961 3.08904 15.9189 3 15.5365 3V4C15.7637 4 15.9878 4.0529 16.191 4.15451L16.6382 3.26008ZM17.7399 4.3618C17.5015 3.88504 17.115 3.49846 16.6382 3.26008L16.191 4.15451C16.4742 4.29612 16.7039 4.52578 16.8455 4.80902L17.7399 4.3618ZM10.3964 11.3964C10.1426 11.6503 10 11.9946 10 12.3536H11C11 12.2598 11.0372 12.1699 11.1036 12.1036L10.3964 11.3964ZM18 5.46353C18 5.08108 17.911 4.70388 17.7399 4.3618L16.8455 4.80902C16.9471 5.01224 17 5.23632 17 5.46353H18Z" fill="black"/>
</svg>
