<svg width="26" height="26" viewBox="0 0 26 26" fill="none" xmlns="http://www.w3.org/2000/svg">
<path d="M11.9167 20.5834H5.41667C4.84203 20.5834 4.29093 20.3551 3.8846 19.9488C3.47827 19.5424 3.25 18.9913 3.25 18.4167V7.58335C3.25 7.00872 3.47827 6.45762 3.8846 6.05129C4.29093 5.64496 4.84203 5.41669 5.41667 5.41669H20.5833C21.158 5.41669 21.7091 5.64496 22.1154 6.05129C22.5217 6.45762 22.75 7.00872 22.75 7.58335V11.9167" stroke="black" stroke-width="2" stroke-linecap="round" stroke-linejoin="round"/>
<path d="M21.6667 15.1667H16.25C15.6517 15.1667 15.1667 15.6517 15.1667 16.25V19.5C15.1667 20.0983 15.6517 20.5834 16.25 20.5834H21.6667C22.265 20.5834 22.75 20.0983 22.75 19.5V16.25C22.75 15.6517 22.265 15.1667 21.6667 15.1667Z" stroke="black" stroke-width="2" stroke-linecap="round" stroke-linejoin="round"/>
<path d="M7.58334 9.75L11.9167 14.0833M7.58334 13V9.75H10.8333" stroke="black" stroke-width="2" stroke-linecap="round" stroke-linejoin="round"/>
</svg>
