<svg width="26" height="26" viewBox="0 0 26 26" fill="none" xmlns="http://www.w3.org/2000/svg">
<path d="M11.9167 20.5833H5.41667C4.84203 20.5833 4.29093 20.355 3.8846 19.9487C3.47827 19.5424 3.25 18.9913 3.25 18.4167V7.58332C3.25 7.00869 3.47827 6.45759 3.8846 6.05126C4.29093 5.64493 4.84203 5.41666 5.41667 5.41666H20.5833C21.158 5.41666 21.7091 5.64493 22.1154 6.05126C22.5217 6.45759 22.75 7.00869 22.75 7.58332V11.9167" stroke="white" stroke-width="2" stroke-linecap="round" stroke-linejoin="round"/>
<path d="M21.6667 15.1667H16.25C15.6517 15.1667 15.1667 15.6517 15.1667 16.25V19.5C15.1667 20.0983 15.6517 20.5833 16.25 20.5833H21.6667C22.265 20.5833 22.75 20.0983 22.75 19.5V16.25C22.75 15.6517 22.265 15.1667 21.6667 15.1667Z" stroke="white" stroke-width="2" stroke-linecap="round" stroke-linejoin="round"/>
<path d="M7.58334 9.75L11.9167 14.0833M8.66668 14.0833H11.9167V10.8333" stroke="white" stroke-width="2" stroke-linecap="round" stroke-linejoin="round"/>
</svg>
