<svg width="25" height="25" viewBox="0 0 25 25" fill="none" xmlns="http://www.w3.org/2000/svg">
<path d="M22.1397 2.94485C22.3386 2.94485 22.5294 3.02387 22.6701 3.16452C22.8107 3.30518 22.8897 3.49594 22.8897 3.69485V9.19485C22.8897 9.39377 22.8107 9.58453 22.6701 9.72518C22.5294 9.86584 22.3386 9.94485 22.1397 9.94485H16.6397C16.4408 9.94485 16.2501 9.86584 16.1094 9.72518C15.9687 9.58453 15.8897 9.39377 15.8897 9.19485C15.8897 8.99594 15.9687 8.80518 16.1094 8.66453C16.2501 8.52387 16.4408 8.44485 16.6397 8.44485H20.5477C19.4897 7.04685 18.1197 5.90885 16.4177 5.38285C14.3685 4.74175 12.1644 4.79979 10.1517 5.54785C8.12173 6.30286 6.24173 7.83285 5.29773 9.55485C5.25233 9.64457 5.18936 9.72423 5.11256 9.78912C5.03576 9.85401 4.9467 9.90279 4.85067 9.93257C4.75464 9.96235 4.6536 9.97252 4.55356 9.96247C4.45352 9.95242 4.35652 9.92236 4.26833 9.87407C4.18015 9.82579 4.10257 9.76026 4.04021 9.6814C3.97785 9.60253 3.93198 9.51193 3.90534 9.41498C3.8787 9.31803 3.87182 9.21672 3.88511 9.11706C3.8984 9.0174 3.9316 8.92143 3.98273 8.83486C5.12473 6.75186 7.31273 5.00285 9.62873 4.14185C11.9519 3.27825 14.496 3.21071 16.8617 3.94985C18.7407 4.53085 20.2367 5.70585 21.3897 7.09385V3.69485C21.3897 3.49594 21.4687 3.30518 21.6094 3.16452C21.75 3.02387 21.9408 2.94485 22.1397 2.94485ZM9.63973 15.6949C10.4027 15.6949 10.8927 15.4739 11.1777 15.2199C11.4617 14.9679 11.5827 14.6499 11.5727 14.3449C11.5547 13.7979 11.0327 12.9449 9.38973 12.9449C8.67073 12.9449 8.10973 13.1619 7.72773 13.3789C7.53902 13.4856 7.36234 13.6123 7.20073 13.7569C7.19463 13.7628 7.18863 13.7688 7.18273 13.7749H7.18173C7.04267 13.9081 6.85769 13.9827 6.66511 13.9833C6.47254 13.9839 6.28712 13.9103 6.14727 13.7779C6.00742 13.6455 5.92386 13.4644 5.91389 13.2721C5.90392 13.0798 5.96831 12.891 6.09373 12.7449V12.7429H6.09573L6.09773 12.7399L6.10373 12.7339L6.11973 12.7169L6.17073 12.6669C6.4201 12.4393 6.69414 12.2404 6.98773 12.0739C7.72022 11.6592 8.54803 11.4425 9.38973 11.4449C11.5977 11.4449 13.0197 12.7159 13.0717 14.2949C13.0842 14.7084 12.9982 15.119 12.8209 15.4928C12.6436 15.8666 12.3799 16.1929 12.0517 16.4449C12.0937 16.4779 12.1347 16.5129 12.1747 16.5489C12.7867 17.0929 13.0977 17.8369 13.0717 18.5949C13.0197 20.1729 11.5977 21.4449 9.38973 21.4449C8.54837 21.4471 7.72092 21.2303 6.98873 20.8159C6.69483 20.6493 6.42046 20.4504 6.17073 20.2229C6.15379 20.2065 6.13712 20.1898 6.12073 20.1729L6.10373 20.1569L6.09773 20.1509L6.09573 20.1479H6.09473L6.09373 20.1459C6.09373 20.1459 5.62773 19.5539 6.12573 19.0859C6.26985 18.9503 6.4617 18.8772 6.65949 18.8824C6.85729 18.8876 7.045 18.9708 7.18173 19.1139L7.18273 19.1149C7.34913 19.2667 7.53192 19.3995 7.72773 19.5109C8.10973 19.7269 8.67073 19.9449 9.38973 19.9449C11.0327 19.9449 11.5547 19.0909 11.5727 18.5449C11.5765 18.3786 11.543 18.2136 11.4746 18.062C11.4063 17.9104 11.3048 17.7761 11.1777 17.6689C10.8927 17.4159 10.4027 17.1949 9.63973 17.1949C9.44081 17.1949 9.25005 17.1158 9.1094 16.9752C8.96875 16.8345 8.88973 16.6438 8.88973 16.4449C8.88973 16.2459 8.96875 16.0552 9.1094 15.9145C9.25005 15.7739 9.44081 15.6949 9.63973 15.6949ZM15.0887 13.0739C15.6427 12.0819 16.5717 11.4439 17.8917 11.4439C19.2117 11.4439 20.1417 12.0819 20.6947 13.0739C21.2167 14.0069 21.3917 15.2209 21.3917 16.4439C21.3917 17.6689 21.2167 18.8819 20.6947 19.8159C20.1407 20.8069 19.2117 21.4449 17.8917 21.4449C16.5717 21.4449 15.6417 20.8069 15.0887 19.8149C14.5667 18.8819 14.3917 17.6689 14.3917 16.4449C14.3917 15.2209 14.5667 14.0069 15.0887 13.0739ZM16.3987 13.8049C16.0597 14.4099 15.8917 15.3209 15.8917 16.4449C15.8917 17.5679 16.0597 18.4799 16.3977 19.0849C16.7037 19.6309 17.1487 19.9449 17.8917 19.9449C18.6347 19.9449 19.0797 19.6309 19.3857 19.0849C19.7237 18.4799 19.8917 17.5679 19.8917 16.4449C19.8917 15.3209 19.7237 14.4099 19.3857 13.8049C19.0797 13.2589 18.6347 12.9449 17.8917 12.9449C17.1487 12.9449 16.7037 13.2579 16.3977 13.8049H16.3987Z" fill="white"/>
</svg>
