<svg width="24" height="25" viewBox="0 0 24 25" fill="none" xmlns="http://www.w3.org/2000/svg">
<path d="M2.75 2.94485C2.55109 2.94485 2.36032 3.02387 2.21967 3.16452C2.07902 3.30518 2 3.49594 2 3.69485V9.19485C2 9.60885 2.336 9.94485 2.75 9.94485H8.25C8.44891 9.94485 8.63968 9.86584 8.78033 9.72518C8.92098 9.58453 9 9.39377 9 9.19485C9 8.99594 8.92098 8.80518 8.78033 8.66453C8.63968 8.52387 8.44891 8.44485 8.25 8.44485H4.343C5.4 7.04685 6.77 5.90985 8.472 5.38285C10.5212 4.74175 12.7254 4.79979 14.738 5.54785C16.768 6.30286 18.648 7.83285 19.592 9.55585C19.6393 9.64226 19.7032 9.7185 19.78 9.78022C19.8568 9.84193 19.9451 9.88792 20.0396 9.91554C20.1342 9.94317 20.2333 9.9519 20.3313 9.94123C20.4292 9.93055 20.5241 9.9007 20.6105 9.85335C20.6969 9.80601 20.7731 9.74212 20.8349 9.66531C20.8966 9.5885 20.9426 9.5003 20.9702 9.40572C20.9978 9.31114 21.0065 9.21205 20.9959 9.1141C20.9852 9.01615 20.9553 8.92126 20.908 8.83486C19.765 6.75186 17.578 5.00385 15.261 4.14185C12.9379 3.27825 10.3937 3.21071 8.028 3.94985C6.15 4.53185 4.653 5.70685 3.5 7.09485V3.69485C3.5 3.49594 3.42098 3.30518 3.28033 3.16452C3.13968 3.02387 2.94891 2.94485 2.75 2.94485ZM8.953 11.4729C9.11042 11.5171 9.24906 11.6116 9.34781 11.742C9.44655 11.8723 9.5 12.0313 9.5 12.1949V20.6949C9.5 20.8938 9.42098 21.0845 9.28033 21.2252C9.13968 21.3658 8.94891 21.4449 8.75 21.4449C8.55109 21.4449 8.36032 21.3658 8.21967 21.2252C8.07902 21.0845 8 20.8938 8 20.6949V14.2779C7.618 14.6469 7.16 15.0239 6.636 15.3379C6.55153 15.3897 6.45762 15.4243 6.3597 15.4396C6.26178 15.455 6.16179 15.4508 6.06551 15.4272C5.96923 15.4037 5.87857 15.3613 5.79877 15.3025C5.71898 15.2437 5.65162 15.1697 5.60061 15.0847C5.5496 14.9997 5.51593 14.9055 5.50156 14.8074C5.4872 14.7093 5.49241 14.6094 5.5169 14.5133C5.54139 14.4173 5.58468 14.3271 5.64426 14.2479C5.70383 14.1686 5.77852 14.102 5.864 14.0519C6.54 13.6469 7.104 13.0869 7.507 12.6119C7.72191 12.3581 7.92128 12.0917 8.104 11.8139L8.11 11.8049V11.8039C8.19511 11.6642 8.32359 11.5563 8.47581 11.4965C8.62802 11.4367 8.79562 11.4284 8.953 11.4729ZM13.199 13.0739C13.753 12.0829 14.682 11.4449 16.002 11.4449C17.322 11.4449 18.252 12.0829 18.805 13.0739C19.327 14.0069 19.502 15.2209 19.502 16.4449C19.502 17.6689 19.327 18.8829 18.805 19.8159C18.251 20.8069 17.322 21.4449 16.002 21.4449C14.682 21.4449 13.752 20.8069 13.199 19.8159C12.677 18.8829 12.502 17.6689 12.502 16.4449C12.502 15.2209 12.677 14.0069 13.199 13.0739ZM14.509 13.8059C14.17 14.4099 14.002 15.3219 14.002 16.4449C14.002 17.5679 14.17 18.4799 14.508 19.0849C14.814 19.6309 15.259 19.9449 16.002 19.9449C16.745 19.9449 17.19 19.6309 17.496 19.0849C17.834 18.4799 18.002 17.5679 18.002 16.4449C18.002 15.3219 17.834 14.4099 17.496 13.8049C17.19 13.2589 16.745 12.9449 16.002 12.9449C15.259 12.9449 14.814 13.2589 14.508 13.8049L14.509 13.8059Z" fill="white"/>
</svg>
