<svg width="26" height="26" viewBox="0 0 26 26" fill="none" xmlns="http://www.w3.org/2000/svg">
<path fill-rule="evenodd" clip-rule="evenodd" d="M2.4375 7.84875H6.97125L13.2437 1.625L14.625 2.19375V23.3187L13.2437 23.855L6.97125 17.5987H2.4375L1.625 16.7862V8.66125L2.4375 7.84875ZM7.88125 16.25L13 21.3525V4.16L7.88125 9.23L7.3125 9.47375H3.25V15.9737H7.3125L7.88125 16.25ZM24.375 12.7237C24.3792 15.3468 23.4729 17.89 21.8107 19.9192L20.6537 18.7655C22.0147 17.0461 22.7536 14.9166 22.75 12.7237C22.75 10.4487 21.97 8.35412 20.6635 6.695L21.8205 5.54125C23.4762 7.5684 24.3789 10.1064 24.375 12.7237V12.7237ZM21.125 12.7237C21.1281 14.4848 20.5564 16.1987 19.4967 17.6052L18.3332 16.4417C19.095 15.3517 19.5024 14.0535 19.5 12.7237C19.5023 11.3992 19.0978 10.106 18.3414 9.01875L19.5049 7.85525C20.5221 9.21212 21.125 10.8972 21.125 12.7237ZM17.875 12.7237C17.875 13.6565 17.615 14.5275 17.16 15.2685L15.9591 14.0692C16.1511 13.6495 16.2512 13.1935 16.2526 12.7319C16.254 12.2703 16.1567 11.8138 15.9672 11.3929L17.1681 10.192C17.6166 10.9297 17.875 11.7975 17.875 12.7237V12.7237Z" fill="white"/>
</svg>
