<svg width="26" height="26" viewBox="0 0 26 26" fill="none" xmlns="http://www.w3.org/2000/svg">
<path d="M25.1875 10.0831L24.0419 8.9375L21.125 11.8544L18.2081 8.9375L17.0625 10.0831L19.9794 13L17.0625 15.9169L18.2081 17.0625L21.125 14.1456L24.0419 17.0625L25.1875 15.9169L22.2706 13L25.1875 10.0831ZM14.625 24.375C14.5175 24.3746 14.4112 24.3528 14.3121 24.3109C14.2131 24.2691 14.1234 24.208 14.0481 24.1312L7.85688 17.875H2.4375C2.22201 17.875 2.01535 17.7894 1.86298 17.637C1.7106 17.4846 1.625 17.278 1.625 17.0625V8.9375C1.625 8.72201 1.7106 8.51534 1.86298 8.36297C2.01535 8.2106 2.22201 8.125 2.4375 8.125H7.85688L14.0481 1.86875C14.2004 1.71742 14.4063 1.63248 14.6209 1.63248C14.8356 1.63248 15.0415 1.71742 15.1938 1.86875C15.3468 2.01876 15.4344 2.22318 15.4375 2.4375V23.5625C15.4375 23.778 15.3519 23.9846 15.1995 24.137C15.0472 24.2894 14.8405 24.375 14.625 24.375ZM3.25 16.25H8.125C8.36185 16.2484 8.59075 16.3354 8.76687 16.4937L13.8125 21.5881V4.41187L8.76687 9.50625C8.59075 9.66462 8.36185 9.75155 8.125 9.75H3.25V16.25Z" fill="white"/>
</svg>
